<?xml version="1.0" encoding="UTF-8"?>
<svg width="127px" height="67px" viewBox="0 0 127 67" version="1.1" xmlns="http://www.w3.org/2000/svg" xmlns:xlink="http://www.w3.org/1999/xlink">
    <!-- Generator: Sketch 48.1 (47250) - http://www.bohemiancoding.com/sketch -->
    <title>Group</title>
    <desc>Created with Sketch.</desc>
    <defs></defs>
    <g id="Desktop-HD" stroke="none" stroke-width="1" fill="none" fill-rule="evenodd" transform="translate(-657.000000, -3663.000000)">
        <g id="Group" transform="translate(657.000000, 3663.000000)">
            <path d="M50.2589937,37.5 L49.1473366,37.5 L33.7651052,2.57554945 L33.6099903,2.62706044 L33.6099903,36.1092033 L37.8239461,36.1092033 L37.8239461,37.5 L28,37.5 L28,36.1092033 L32.2139558,36.1092033 L32.2139558,1.3907967 L28,1.3907967 L28,0 L34.2045975,0 L49.6126815,35.2850275 L49.7677964,35.2850275 L65.2275853,0 L71.4838878,0 L71.4838878,1.3907967 L67.269932,1.3907967 L67.269932,36.1092033 L71.4838878,36.1092033 L71.4838878,37.5 L61.6599417,37.5 L61.6599417,36.1092033 L65.8738975,36.1092033 L65.8738975,2.44677198 L65.7187826,2.39526099 L50.2589937,37.5 Z M76.3063841,1.3907967 L76.3063841,0 L86.1303302,0 L86.1303302,1.3907967 L81.9163744,1.3907967 L81.9163744,36.1092033 L86.1303302,36.1092033 L86.1303302,37.5 L76.3063841,37.5 L76.3063841,36.1092033 L80.52034,36.1092033 L80.52034,1.3907967 L76.3063841,1.3907967 Z M126.5,0 L126.5,1.3907967 L122.286044,1.3907967 L122.286044,37.5 L120.89001,37.5 L96.7437843,2.57554945 L96.5886693,2.62706044 L96.5886693,36.1092033 L100.802625,36.1092033 L100.802625,37.5 L90.9528266,37.5 L90.9528266,36.1092033 L95.1667824,36.1092033 L95.1667824,1.3907967 L90.9528266,1.3907967 L90.9528266,0 L96.5886693,0 L120.734895,34.8471841 L120.89001,34.7956731 L120.89001,1.3907967 L116.676054,1.3907967 L116.676054,0 L126.5,0 Z" id="5MIN-Copy-2" fill="#FAFAFA"></path>
            <path d="M10.4883828,58.5274725 L7.33164947,58.5274725 L7.33164947,67 L1.5,67 L1.5,43 L11.0200432,43 C12.4156585,43 13.6783393,43.1565918 14.8081231,43.4697802 C15.937907,43.7829686 16.9015318,44.2445024 17.6990263,44.8543956 C18.4965208,45.4642888 19.1084779,46.2197757 19.534916,47.1208791 C19.961354,48.0219825 20.1745698,49.0659281 20.1745698,50.2527473 C20.1745698,51.1758288 20.0748845,51.9972491 19.8755109,52.717033 C19.6761372,53.4368168 19.3909265,54.0686786 19.01987,54.6126374 C18.6488135,55.1565961 18.2029986,55.6291189 17.6824119,56.0302198 C17.1618252,56.4313207 16.5858656,56.7802183 15.9545158,57.0769231 L21.0052891,66.7527473 L21.0052891,67 L14.75828,67 L10.4883828,58.5274725 Z M7.33164947,54.0604396 L11.0200432,54.0604396 C12.1276744,54.0604396 12.9611544,53.7719809 13.5205082,53.1950549 C14.079862,52.618129 14.3595347,51.813192 14.3595347,50.7802198 C14.3595347,49.7472476 14.077093,48.9368161 13.512201,48.3489011 C12.9473091,47.7609861 12.1165981,47.467033 11.0200432,47.467033 L7.33164947,47.467033 L7.33164947,54.0604396 Z M38.8082508,56.8296703 L29.6371098,56.8296703 L29.6371098,62.5494505 L40.4696894,62.5494505 L40.4696894,67 L23.8054603,67 L23.8054603,43 L40.5029182,43 L40.5029182,47.467033 L29.6371098,47.467033 L29.6371098,52.5274725 L38.8082508,52.5274725 L38.8082508,56.8296703 Z M56.6942844,62.5164835 L48.7027648,62.5164835 L47.3071564,67 L41.0767616,67 L49.9488437,43 L55.4315911,43 L64.3701307,67 L58.1065072,67 L56.6942844,62.5164835 Z M50.0983732,58.0494505 L55.298676,58.0494505 L52.6902174,49.7252747 L50.0983732,58.0494505 Z M66.2398963,67 L66.2398963,43 L74.0320433,43 C75.6713376,43 77.1776935,43.280217 78.5511563,43.8406593 C79.9246191,44.4011017 81.1069977,45.1895554 82.0983277,46.206044 C83.0896577,47.2225326 83.8622189,48.4368061 84.4160345,49.8489011 C84.9698502,51.2609961 85.2467538,52.8131784 85.2467538,54.5054945 L85.2467538,55.510989 C85.2467538,57.2142942 84.9698502,58.7692237 84.4160345,60.1758242 C83.8622189,61.5824246 83.0896577,62.7912037 82.0983277,63.8021978 C81.1069977,64.8131919 79.9301571,65.5988983 78.5677707,66.1593407 C77.2053842,66.719783 75.7156425,67 74.0985008,67 L66.2398963,67 Z M72.0715458,47.467033 L72.0715458,62.5494505 L74.0985008,62.5494505 C75.7710241,62.5494505 77.0558571,61.9587971 77.9530384,60.7774725 C78.8502197,59.5961479 79.2988036,57.840671 79.2988036,55.510989 L79.2988036,54.4725275 C79.2988036,52.1538346 78.8502197,50.4065993 77.9530384,49.2307692 C77.0558571,48.0549392 75.7488718,47.467033 74.0320433,47.467033 L72.0715458,47.467033 Z M103.348774,56.8296703 L94.1776334,56.8296703 L94.1776334,62.5494505 L105.010213,62.5494505 L105.010213,67 L88.3459839,67 L88.3459839,43 L105.043442,43 L105.043442,47.467033 L94.1776334,47.467033 L94.1776334,52.5274725 L103.348774,52.5274725 L103.348774,56.8296703 Z M116.483094,58.5274725 L113.32636,58.5274725 L113.32636,67 L107.494711,67 L107.494711,43 L117.014754,43 C118.410369,43 119.67305,43.1565918 120.802834,43.4697802 C121.932618,43.7829686 122.896243,44.2445024 123.693737,44.8543956 C124.491232,45.4642888 125.103189,46.2197757 125.529627,47.1208791 C125.956065,48.0219825 126.169281,49.0659281 126.169281,50.2527473 C126.169281,51.1758288 126.069595,51.9972491 125.870222,52.717033 C125.670848,53.4368168 125.385637,54.0686786 125.014581,54.6126374 C124.643524,55.1565961 124.19771,55.6291189 123.677123,56.0302198 C123.156536,56.4313207 122.580576,56.7802183 121.949227,57.0769231 L127,66.7527473 L127,67 L120.752991,67 L116.483094,58.5274725 Z M113.32636,54.0604396 L117.014754,54.0604396 C118.122385,54.0604396 118.955865,53.7719809 119.515219,53.1950549 C120.074573,52.618129 120.354246,51.813192 120.354246,50.7802198 C120.354246,49.7472476 120.071804,48.9368161 119.506912,48.3489011 C118.94202,47.7609861 118.111309,47.467033 117.014754,47.467033 L113.32636,47.467033 L113.32636,54.0604396 Z" id="READER-Copy-2" fill="#FAFAFA"></path>
            <g id="Group-Copy-10" transform="translate(0.000000, 4.500000)" fill="#4BCA7E">
                <path d="M13.25,29 C5.93222707,29 0,23.1327763 0,15.895189 C0,8.65760174 5.93222707,2.79037801 13.25,2.79037801 C20.5677729,2.79037801 26.5,8.65760174 26.5,15.895189 C26.5,23.1327763 20.5677729,29 13.25,29 Z M13.2769857,25.5302944 C18.642359,25.5302944 22.9918534,21.2284603 22.9918534,15.921879 C22.9918534,10.6152978 18.642359,6.31346365 13.2769857,6.31346365 C7.91161251,6.31346365 3.56211813,10.6152978 3.56211813,15.921879 C3.56211813,21.2284603 7.91161251,25.5302944 13.2769857,25.5302944 Z" id="Oval-Copy" fill-rule="nonzero"></path>
                <path d="M13.1996198,0.609631384 L13.1996198,14.563925 C13.1996198,14.8952959 13.4682489,15.163925 13.7996198,15.163925 C14.0104612,15.163925 14.2058301,15.0532585 14.3142363,14.872421 L21.5544742,2.79464252 C21.7248519,2.51042764 21.6325685,2.14190759 21.3483536,1.97152995 C21.2991357,1.94202539 21.2459397,1.91973403 21.1903911,1.90533701 L13.9501532,0.0288218741 C13.629381,-0.0543154434 13.3019476,0.13832572 13.2188103,0.459097954 C13.2060682,0.50826133 13.1996198,0.558843604 13.1996198,0.609631384 Z" id="Path-2"></path>
            </g>
        </g>
    </g>
</svg>