<?xml version="1.0" encoding="UTF-8"?>
<svg width="254px" height="134px" viewBox="0 0 254 134" version="1.1" xmlns="http://www.w3.org/2000/svg" xmlns:xlink="http://www.w3.org/1999/xlink">
    <!-- Generator: Sketch 48.1 (47250) - http://www.bohemiancoding.com/sketch -->
    <title>Group</title>
    <desc>Created with Sketch.</desc>
    <defs></defs>
    <g id="Desktop-HD" stroke="none" stroke-width="1" fill="none" fill-rule="evenodd" transform="translate(-593.000000, -162.000000)">
        <g id="Group" transform="translate(593.000000, 162.000000)">
            <path d="M100.517987,75 L98.2946733,75 L67.5302104,5.1510989 L67.2199806,5.25412088 L67.2199806,72.2184066 L75.6478922,72.2184066 L75.6478922,75 L56,75 L56,72.2184066 L64.4279117,72.2184066 L64.4279117,2.78159341 L56,2.78159341 L56,0 L68.4091951,0 L99.2253629,70.5700549 L99.5355928,70.5700549 L130.455171,0 L142.967776,0 L142.967776,2.78159341 L134.539864,2.78159341 L134.539864,72.2184066 L142.967776,72.2184066 L142.967776,75 L123.319883,75 L123.319883,72.2184066 L131.747795,72.2184066 L131.747795,4.89354396 L131.437565,4.79052198 L100.517987,75 Z M152.612768,2.78159341 L152.612768,0 L172.26066,0 L172.26066,2.78159341 L163.832749,2.78159341 L163.832749,72.2184066 L172.26066,72.2184066 L172.26066,75 L152.612768,75 L152.612768,72.2184066 L161.04068,72.2184066 L161.04068,2.78159341 L152.612768,2.78159341 Z M253,0 L253,2.78159341 L244.572088,2.78159341 L244.572088,75 L241.780019,75 L193.487569,5.1510989 L193.177339,5.25412088 L193.177339,72.2184066 L201.60525,72.2184066 L201.60525,75 L181.905653,75 L181.905653,72.2184066 L190.333565,72.2184066 L190.333565,2.78159341 L181.905653,2.78159341 L181.905653,0 L193.177339,0 L241.46979,69.6943681 L241.780019,69.5913462 L241.780019,2.78159341 L233.352108,2.78159341 L233.352108,0 L253,0 Z" id="5MIN-Copy-2" fill="#212121"></path>
            <path d="M20.9767656,117.054945 L14.6632989,117.054945 L14.6632989,134 L3,134 L3,86 L22.0400863,86 C24.8313171,86 27.3566785,86.3131837 29.6162463,86.9395604 C31.8758141,87.5659372 33.8030636,88.4890049 35.3980526,89.7087912 C36.9930416,90.9285775 38.2169558,92.4395514 39.0698319,94.2417582 C39.922708,96.0439651 40.3491396,98.1318563 40.3491396,100.505495 C40.3491396,102.351658 40.149769,103.994498 39.7510217,105.434066 C39.3522745,106.873634 38.7818529,108.137357 38.03974,109.225275 C37.297627,110.313192 36.4059972,111.258238 35.3648238,112.06044 C34.3236504,112.862641 33.1717312,113.560437 31.9090316,114.153846 L42.0105782,133.505495 L42.0105782,134 L29.51656,134 L20.9767656,117.054945 Z M14.6632989,108.120879 L22.0400863,108.120879 C24.2553488,108.120879 25.9223089,107.543962 27.0410165,106.39011 C28.1597241,105.236258 28.7190695,103.626384 28.7190695,101.56044 C28.7190695,99.4944952 28.154186,97.8736323 27.0244021,96.6978022 C25.8946182,95.5219721 24.2331962,94.9340659 22.0400863,94.9340659 L14.6632989,94.9340659 L14.6632989,108.120879 Z M77.6165016,113.659341 L59.2742195,113.659341 L59.2742195,125.098901 L80.9393788,125.098901 L80.9393788,134 L47.6109206,134 L47.6109206,86 L81.0058363,86 L81.0058363,94.9340659 L59.2742195,94.9340659 L59.2742195,105.054945 L77.6165016,105.054945 L77.6165016,113.659341 Z M113.388569,125.032967 L97.4055295,125.032967 L94.6143127,134 L82.1535232,134 L99.8976874,86 L110.863182,86 L128.740261,134 L116.213014,134 L113.388569,125.032967 Z M100.196746,116.098901 L110.597352,116.098901 L105.380435,99.4505495 L100.196746,116.098901 Z M132.479793,134 L132.479793,86 L148.064087,86 C151.342675,86 154.355387,86.560434 157.102313,87.6813187 C159.849238,88.8022034 162.213995,90.3791107 164.196655,92.4120879 C166.179315,94.4450651 167.724438,96.8736123 168.832069,99.6978022 C169.9397,102.521992 170.493508,105.626357 170.493508,109.010989 L170.493508,111.021978 C170.493508,114.428588 169.9397,117.538447 168.832069,120.351648 C167.724438,123.164849 166.179315,125.582407 164.196655,127.604396 C162.213995,129.626384 159.860314,131.197797 157.135541,132.318681 C154.410768,133.439566 151.431285,134 148.197002,134 L132.479793,134 Z M144.143092,94.9340659 L144.143092,125.098901 L148.197002,125.098901 C151.542048,125.098901 154.111714,123.917594 155.906077,121.554945 C157.700439,119.192296 158.597607,115.681342 158.597607,111.021978 L158.597607,108.945055 C158.597607,104.307669 157.700439,100.813199 155.906077,98.4615385 C154.111714,96.1098784 151.497744,94.9340659 148.064087,94.9340659 L144.143092,94.9340659 Z M206.697549,113.659341 L188.355267,113.659341 L188.355267,125.098901 L210.020426,125.098901 L210.020426,134 L176.691968,134 L176.691968,86 L210.086884,86 L210.086884,94.9340659 L188.355267,94.9340659 L188.355267,105.054945 L206.697549,105.054945 L206.697549,113.659341 Z M232.966187,117.054945 L226.652721,117.054945 L226.652721,134 L214.989422,134 L214.989422,86 L234.029508,86 C236.820739,86 239.3461,86.3131837 241.605668,86.9395604 C243.865236,87.5659372 245.792485,88.4890049 247.387474,89.7087912 C248.982463,90.9285775 250.206378,92.4395514 251.059254,94.2417582 C251.91213,96.0439651 252.338561,98.1318563 252.338561,100.505495 C252.338561,102.351658 252.139191,103.994498 251.740444,105.434066 C251.341696,106.873634 250.771275,108.137357 250.029162,109.225275 C249.287049,110.313192 248.395419,111.258238 247.354246,112.06044 C246.313072,112.862641 245.161153,113.560437 243.898453,114.153846 L254,133.505495 L254,134 L241.505982,134 L232.966187,117.054945 Z M226.652721,108.120879 L234.029508,108.120879 C236.244771,108.120879 237.911731,107.543962 239.030438,106.39011 C240.149146,105.236258 240.708491,103.626384 240.708491,101.56044 C240.708491,99.4944952 240.143608,97.8736323 239.013824,96.6978022 C237.88404,95.5219721 236.222618,94.9340659 234.029508,94.9340659 L226.652721,94.9340659 L226.652721,108.120879 Z" id="READER-Copy-2" fill="#212121"></path>
            <g id="Group-Copy-10" transform="translate(0.000000, 9.000000)" fill="#4BCA7E">
                <path d="M26.5,58 C11.8644541,58 0,46.2655525 0,31.790378 C0,17.3152035 11.8644541,5.58075601 26.5,5.58075601 C41.1355459,5.58075601 53,17.3152035 53,31.790378 C53,46.2655525 41.1355459,58 26.5,58 Z M26.5539715,51.0605889 C37.2847179,51.0605889 45.9837067,42.4569207 45.9837067,31.8437581 C45.9837067,21.2305955 37.2847179,12.6269273 26.5539715,12.6269273 C15.823225,12.6269273 7.12423625,21.2305955 7.12423625,31.8437581 C7.12423625,42.4569207 15.823225,51.0605889 26.5539715,51.0605889 Z" id="Oval-Copy" fill-rule="nonzero"></path>
                <path d="M26.3992395,1.21926277 L26.3992395,29.1278501 C26.3992395,29.7905918 26.9364978,30.3278501 27.5992395,30.3278501 C28.0209224,30.3278501 28.4116602,30.1065171 28.6284727,29.7448421 L43.1089484,5.58928505 C43.4497037,5.02085528 43.2651371,4.28381517 42.6967073,3.9430599 C42.5982714,3.88405078 42.4918794,3.83946806 42.3807822,3.81067402 L27.9003064,0.0576437481 C27.2587619,-0.108630887 26.6038952,0.276651439 26.4376205,0.918195909 C26.4121363,1.01652266 26.3992395,1.11768721 26.3992395,1.21926277 Z" id="Path-2"></path>
            </g>
        </g>
    </g>
</svg>